<?xml version="1.0" encoding="iso-8859-1"?>
<!-- Generator: Adobe Illustrator 19.0.0, SVG Export Plug-In . SVG Version: 6.00 Build 0)  -->
<svg version="1.1" id="Layer_1" xmlns="http://www.w3.org/2000/svg" xmlns:xlink="http://www.w3.org/1999/xlink" x="0px" y="0px"
	 viewBox="0 0 512 512" style="enable-background:new 0 0 512 512;" xml:space="preserve">
<path style="fill:#EFE7E4;" d="M439.827,7.515c0-4.151-3.364-7.515-7.515-7.515H53.266c-4.15,0-7.515,3.364-7.515,7.515v496.97
	c0,4.151,3.365,7.515,7.515,7.515h304.199c1.993,0,3.904-0.792,5.315-2.2l74.846-74.847c1.409-1.41,2.2-3.321,2.2-5.315V7.515
	H439.827z"/>
<path style="fill:#D8D1D0;" d="M439.827,429.638V7.515c0-4.151-3.364-7.515-7.515-7.515h-20.04v331.194v66.036v32.407L329.909,512
	h27.557c1.993,0,3.904-0.792,5.315-2.2l74.846-74.847C439.035,433.542,439.827,431.631,439.827,429.638z"/>
<path style="fill:#F7CB4F;" d="M379.38,280.966l-26.311-26.311c-1.532-1.53-3.651-2.332-5.812-2.184
	c-2.161,0.143-4.155,1.212-5.472,2.933c-3.579,4.679-7.491,9.148-11.626,13.283l-0.001,0.001
	c-4.134,4.135-8.603,8.046-13.283,11.625c-1.72,1.317-2.79,3.311-2.933,5.472c-0.143,2.161,0.652,4.279,2.184,5.812l26.311,26.311
	c1.468,1.467,3.392,2.2,5.315,2.2c1.923,0,3.847-0.733,5.315-2.2l26.313-26.313C382.315,288.659,382.315,283.902,379.38,280.966z"/>
<path style="fill:#FFAE47;" d="M364,306.975l-36.298-35.911c-3.432,3.259-7.055,6.365-10.825,9.249
	c-1.72,1.317-2.79,3.311-2.933,5.472c-0.143,2.161,0.652,4.279,2.184,5.812l26.311,26.311c1.468,1.467,3.392,2.2,5.315,2.2
	c1.923,0,3.847-0.733,5.315-2.2L364,306.975z"/>
<path style="fill:#353535;" d="M455.855,344.108l-69.809-69.809c-2.936-2.934-7.694-2.934-10.629,0l-39.645,39.645
	c-2.935,2.936-2.935,7.694,0,10.628l69.809,69.809c6.715,6.714,15.642,10.412,25.137,10.412c9.496,0,18.423-3.697,25.138-10.412
	c0-0.001,0-0.001,0-0.001C469.714,380.522,469.714,357.969,455.855,344.108z"/>
<path style="fill:#262626;" d="M448.662,383.048c-9.495,0-18.422-3.697-25.137-10.412l-73.222-73.222l-14.531,14.531
	c-2.935,2.936-2.935,7.694,0,10.628l69.809,69.809c6.715,6.714,15.642,10.412,25.137,10.412c9.496,0,18.423-3.697,25.138-10.412
	c0-0.001,0-0.001,0-0.001c4.387-4.387,7.38-9.645,8.99-15.223C459.895,381.696,454.384,383.048,448.662,383.048z"/>
<path style="fill:#F7CB4F;" d="M340.823,71.398c-27.768-27.768-64.688-43.061-103.958-43.061S160.675,43.63,132.907,71.398
	c-57.323,57.324-57.323,150.594,0,207.918c27.768,27.768,64.689,43.061,103.959,43.061s76.191-15.293,103.959-43.061
	C398.146,221.992,398.146,128.722,340.823,71.398z"/>
<path style="fill:#FFAE47;" d="M340.823,71.398c-27.768-27.768-64.688-43.061-103.958-43.061c-3.537,0-7.053,0.128-10.547,0.375
	c35.298,2.486,68.144,17.419,93.411,42.686c57.323,57.324,57.323,150.594,0,207.918c-25.267,25.267-58.113,40.2-93.411,42.686
	c3.494,0.246,7.01,0.375,10.547,0.375c39.27,0,76.191-15.293,103.959-43.061C398.146,221.992,398.146,128.722,340.823,71.398z"/>
<path style="fill:#EFE7E4;" d="M236.864,58.697c-63.98,0-116.031,52.051-116.031,116.031s52.051,116.032,116.031,116.032
	c63.981,0,116.032-52.051,116.032-116.032C352.896,110.748,300.845,58.697,236.864,58.697z"/>
<path style="fill:#D8D1D0;" d="M236.864,58.697c-4.758,0-9.447,0.295-14.055,0.854c57.376,6.96,101.977,55.955,101.977,115.177
	c0,59.223-44.6,108.218-101.977,115.178c4.609,0.559,9.298,0.854,14.055,0.854c63.981,0,116.032-52.051,116.032-116.032
	C352.896,110.748,300.845,58.697,236.864,58.697z"/>
<path style="fill:#353535;" d="M268.993,142.804c-4.151,0-7.515-3.364-7.515-7.515v-12.136c0-3.163-2.573-5.738-5.738-5.738h-37.751
	c-3.163,0-5.737,2.573-5.737,5.738v12.136c0,4.151-3.365,7.515-7.515,7.515c-4.15,0-7.515-3.364-7.515-7.515v-12.136
	c0-11.451,9.316-20.768,20.767-20.768h37.751c11.451,0,20.768,9.317,20.768,20.768v12.136
	C276.508,139.439,273.143,142.804,268.993,142.804z"/>
<path style="fill:#465A65;" d="M304.162,127.774H169.568c-4.15,0-7.515,3.364-7.515,7.515v90.407c0,4.151,3.365,7.515,7.515,7.515
	h134.595c4.151,0,7.515-3.364,7.515-7.515v-90.407C311.677,131.138,308.313,127.774,304.162,127.774z"/>
<path style="fill:#2E3C42;" d="M286.836,182.554h-19.949h-60.059h-19.934c-13.72,0-24.841-11.122-24.841-24.842v16.709
	c0,13.72,11.122,24.842,24.841,24.842h19.934h60.059h19.949c13.72,0,24.841-11.122,24.841-24.842v-16.709
	C311.677,171.432,300.556,182.554,286.836,182.554z"/>
<path style="fill:#546F7A;" d="M304.162,127.774H169.568c-4.15,0-7.515,3.364-7.515,7.515V159.8
	c0,16.466,13.396,29.861,29.861,29.861h89.903c16.466,0,29.861-13.395,29.861-29.861v-24.511
	C311.677,131.138,308.313,127.774,304.162,127.774z"/>
<path style="fill:#B2AEAD;" d="M437.626,434.952c1.409-1.41,2.2-3.321,2.2-5.315v-7.515h-82.362c-4.15,0-7.515,3.364-7.515,7.515
	v82.362h7.516c1.992,0,3.902-0.791,5.312-2.198c0,0,0.001-0.002,0.002-0.002l0.003-0.001L437.626,434.952z"/>
<g>
	<path style="fill:#546F7A;" d="M330.619,399.236H143.111c-4.15,0-7.515-3.364-7.515-7.515c0-4.151,3.365-7.515,7.515-7.515h187.508
		c4.151,0,7.515,3.364,7.515,7.515C338.135,395.872,334.77,399.236,330.619,399.236z"/>
	<path style="fill:#546F7A;" d="M330.619,363.863H143.111c-4.15,0-7.515-3.364-7.515-7.515s3.365-7.515,7.515-7.515h187.508
		c4.151,0,7.515,3.364,7.515,7.515S334.77,363.863,330.619,363.863z"/>
	<path style="fill:#546F7A;" d="M272.393,434.608H143.11c-4.15,0-7.515-3.364-7.515-7.515c0-4.151,3.365-7.515,7.515-7.515h129.283
		c4.151,0,7.515,3.364,7.515,7.515C279.908,431.244,276.544,434.608,272.393,434.608z"/>
</g>
<g>
</g>
<g>
</g>
<g>
</g>
<g>
</g>
<g>
</g>
<g>
</g>
<g>
</g>
<g>
</g>
<g>
</g>
<g>
</g>
<g>
</g>
<g>
</g>
<g>
</g>
<g>
</g>
<g>
</g>
</svg>
